# xmcd
#
# Track frame offsets:
#	150
#	13766
#	28526
#	44183
#	59887
#	75004
#	91433
#	105648
#	120505
#	137148
#	155641
#	167766
#	184595
#	199726
#	214115
#	229404
#	242429
#	259107
#	272304
#	285510
#
# Disc length: 3992 seconds
#
# Revision: 1
# Processed by: cddbd v1.5.2PL0 Copyright (c) Steve Scherf et al.
# Submitted via: dBpowerAMP V4.0
#
DISCID=160f9614
DTITLE=Various Artist - Hott Country Volume 264 Can
DYEAR=2018
DGENRE=Country
TTITLE0=Dierks Bentley - Woman, Amen
TTITLE1=Jason Aldean - You Make It Easy
TTITLE2=Gord Bamford - Neon Smoke
TTITLE3=Maren Morris - Rich
TTITLE4=James Barker Band - Good Together
TTITLE5=Blake Shelton - I Lived It
TTITLE6=Brett Kissel - Anthem
TTITLE7=Dan and Shay - Tequila
TTITLE8=High Valley - Young Forever
TTITLE9=Kid Rock - American Rock 'n Roll
TTITLE10=Sir Rosevelt - Something 'bout You
TTITLE11=Carrie Underwood ft. Ludacris - The Champion
TTITLE12=Lanco - Born To Love You
TTITLE13=Jillian Jacqueline - Reasons
TTITLE14=Lisa Nicole - Mad About It
TTITLE15=Richard Schroder - Drivin'
TTITLE16=Tim Elliott - I Got You
TTITLE17=Re Mattei - Bump Bump Bump
TTITLE18=Reagan Hudson - Honky Tonk Side
TTITLE19=Vince Youngs - My Turn
EXTD=
EXTT0=
EXTT1=
EXTT2=
EXTT3=
EXTT4=
EXTT5=
EXTT6=
EXTT7=
EXTT8=
EXTT9=
EXTT10=
EXTT11=
EXTT12=
EXTT13=
EXTT14=
EXTT15=
EXTT16=
EXTT17=
EXTT18=
EXTT19=
PLAYORDER=
